<svg width="86" height="86" viewBox="0 0 86 86" fill="none" xmlns="http://www.w3.org/2000/svg">
<g clip-path="url(#clip0_1_372)">
<mask id="mask0_1_372" style="mask-type:alpha" maskUnits="userSpaceOnUse" x="0" y="0" width="86" height="86">
<path d="M0 30.0246C0 14.8691 0 9.41638 4.70819 4.70819C9.41638 0 14.8691 0 32.1495 0H53.8505C71.1308 0 76.5836 0 81.2918 4.70819C86 9.41638 86 14.8691 86 32.1495V53.8505C86 71.1308 86 76.5836 81.2918 81.2918C76.5836 86 71.1308 86 53.8505 86H32.1495C14.8691 86 9.41638 86 4.70819 81.2918C0 76.5836 0 71.1308 0 53.8505V30.0246Z" fill="white"/>
</mask>
<g mask="url(#mask0_1_372)">
<rect width="86" height="86" fill="url(#paint0_radial_1_372)"/>
</g>
<g clip-path="url(#clip1_1_372)">
<path fill-rule="evenodd" clip-rule="evenodd" d="M23.2053 62.2763C19.4151 57.6908 17 50.7581 17 43C17 35.242 19.4151 28.3092 23.2053 23.7238C17.1212 27.4693 13 34.6976 13 43C13 51.3025 17.1212 58.5308 23.2053 62.2763ZM62.7948 62.2763C68.8788 58.5308 73 51.3025 73 43C73 34.6976 68.8788 27.4693 62.7948 23.7238C66.5849 28.3093 69 35.242 69 43C69 50.7581 66.5849 57.6908 62.7948 62.2763Z" fill="white" fill-opacity="0.35"/>
<path fill-rule="evenodd" clip-rule="evenodd" d="M28.075 19.5908C24.9185 23.0763 23 27.6744 23 32.7142V53.2857C23 58.3255 24.9185 62.9236 28.075 66.4091C21.6043 62.8502 17 53.7118 17 43C17 32.2881 21.6043 23.1497 28.075 19.5908ZM57.925 19.5908C61.0815 23.0763 63 27.6744 63 32.7142V53.2857C63 58.3255 61.0814 62.9236 57.925 66.4091C64.3957 62.8502 69 53.7118 69 43C69 32.2881 64.3957 23.1497 57.925 19.5908Z" fill="white" fill-opacity="0.65"/>
<path fill-rule="evenodd" clip-rule="evenodd" d="M43 13C31.9543 13 23 21.8264 23 32.7143V53.2857C23 64.1736 31.9543 73 43 73C54.0457 73 63 64.1736 63 53.2857V32.7143C63 21.8264 54.0457 13 43 13ZM40.217 24.5464C40.217 22.4152 42.6823 21.2304 44.3465 22.5617L54.8513 30.9656C56.1232 31.9831 56.1232 33.9176 54.8513 34.9351L44.6239 43.117L54.8513 51.299C56.1232 52.3165 56.1232 54.2509 54.8513 55.2684L44.3465 63.6723C42.6823 65.0037 40.217 63.8188 40.217 61.6876V46.6425L31.8502 53.336C31.1194 53.9206 30.0531 53.8021 29.4685 53.0714C28.8839 52.3406 29.0024 51.2743 29.7332 50.6897L39.199 43.117L29.7332 35.5443C29.0024 34.9597 28.8839 33.8934 29.4685 33.1627C30.0531 32.4319 31.1194 32.3134 31.8502 32.898L40.217 39.5915V24.5464ZM43.6059 39.5915L51.9074 32.9504L43.6059 26.3092V39.5915ZM43.6059 46.6425L51.9074 53.2837L43.6059 59.9248V46.6425Z" fill="white"/>
</g>
</g>
<defs>
<radialGradient id="paint0_radial_1_372" cx="0" cy="0" r="1" gradientUnits="userSpaceOnUse" gradientTransform="rotate(45) scale(121.622)">
<stop stop-color="#5E2CC8"/>
<stop offset="1" stop-color="#4320A7"/>
</radialGradient>
<clipPath id="clip0_1_372">
<rect width="86" height="86" fill="white"/>
</clipPath>
<clipPath id="clip1_1_372">
<rect width="60" height="60" fill="white" transform="translate(13 13)"/>
</clipPath>
</defs>
</svg>
